<svg width="24" height="24" viewBox="0 0 24 24" fill="none" xmlns="http://www.w3.org/2000/svg">
<path d="M6.73223 15.55H18.3308C19.0396 15.55 19.6195 16.1575 19.6195 16.9C19.6195 17.6425 19.0396 18.25 18.3308 18.25H5.4435C4.7347 18.25 4.15477 17.6425 4.15477 16.9V3.40001H1.5773C0.868503 3.40001 0.288574 2.79251 0.288574 2.05001C0.288574 1.30751 0.868503 0.700012 1.5773 0.700012H5.4435C6.1523 0.700012 6.73223 1.30751 6.73223 2.05001V4.75001H23.4857L18.3308 14.2H6.73223V15.55ZM6.08786 19.6C7.15751 19.6 8.02096 20.5045 8.02096 21.625C8.02096 22.7455 7.15751 23.65 6.08786 23.65C5.01822 23.65 4.15477 22.7455 4.15477 21.625C4.15477 20.5045 5.01822 19.6 6.08786 19.6ZM17.6864 19.6C18.7561 19.6 19.6195 20.5045 19.6195 21.625C19.6195 22.7455 18.7561 23.65 17.6864 23.65C16.6168 23.65 15.7533 22.7455 15.7533 21.625C15.7533 20.5045 16.6168 19.6 17.6864 19.6Z" fill="white"/>
</svg>
