<svg width="31" height="32" viewBox="0 0 31 32" fill="none" xmlns="http://www.w3.org/2000/svg">
<path d="M26.782 7.69556H3.51495V6.72115L23.9899 5.00619V6.72115H26.782V3.79792C26.782 1.65422 25.1235 0.149733 23.0984 0.4518L4.4084 3.24641C2.38138 3.55042 0.7229 5.55186 0.7229 7.69556V27.1838C0.7229 28.2175 1.11511 29.2088 1.81326 29.9398C2.51141 30.6707 3.4583 31.0814 4.44563 31.0814H26.782C27.7693 31.0814 28.7162 30.6707 29.4144 29.9398C30.1125 29.2088 30.5047 28.2175 30.5047 27.1838V11.5932C30.5047 10.5595 30.1125 9.5681 29.4144 8.83715C28.7162 8.1062 27.7693 7.69556 26.782 7.69556ZM23.9899 21.349C23.6232 21.3489 23.26 21.2731 22.9212 21.126C22.5824 20.9789 22.2745 20.7634 22.0153 20.4918C21.756 20.2202 21.5504 19.8978 21.4101 19.5429C21.2699 19.1881 21.1978 18.8078 21.1979 18.4238C21.198 18.0398 21.2704 17.6596 21.4109 17.3048C21.5513 16.9501 21.7572 16.6278 22.0166 16.3564C22.276 16.0849 22.584 15.8696 22.9229 15.7228C23.2618 15.576 23.625 15.5005 23.9918 15.5006C24.7325 15.5008 25.4429 15.8092 25.9665 16.3577C26.4901 16.9063 26.7841 17.6502 26.7838 18.4258C26.7836 19.2013 26.4891 19.945 25.9651 20.4932C25.4412 21.0414 24.7307 21.3492 23.9899 21.349Z" fill="black" fill-opacity="0.4"/>
</svg>
